<mxfile host="app.diagrams.net" agent="Mozilla/5.0 (Windows NT 10.0; Win64; x64) AppleWebKit/537.36 (KHTML, like Gecko) Chrome/129.0.0.0 Safari/537.36" version="24.7.13">
  <diagram name="Page-1" id="yWTlI1F4MpdLgaprPHfa">
    <mxGraphModel dx="1034" dy="412" grid="1" gridSize="10" guides="1" tooltips="1" connect="1" arrows="1" fold="1" page="1" pageScale="1" pageWidth="827" pageHeight="1169" math="0" shadow="0">
      <root>
        <mxCell id="0" />
        <mxCell id="1" parent="0" />
        <mxCell id="2wVobbHNdjv6l93kUB2a-83" value="" style="verticalLabelPosition=bottom;verticalAlign=top;html=1;shape=mxgraph.basic.rect;fillColor2=none;strokeWidth=1;size=20;indent=5;" vertex="1" parent="1">
          <mxGeometry x="485" width="250" height="360" as="geometry" />
        </mxCell>
        <mxCell id="2wVobbHNdjv6l93kUB2a-82" value="" style="verticalLabelPosition=bottom;verticalAlign=top;html=1;shape=mxgraph.basic.rect;fillColor2=none;strokeWidth=1;size=20;indent=5;" vertex="1" parent="1">
          <mxGeometry x="241.87" width="240" height="340" as="geometry" />
        </mxCell>
        <mxCell id="2wVobbHNdjv6l93kUB2a-81" value="" style="verticalLabelPosition=bottom;verticalAlign=top;html=1;shape=mxgraph.basic.rect;fillColor2=none;strokeWidth=1;size=20;indent=5;" vertex="1" parent="1">
          <mxGeometry width="240" height="320" as="geometry" />
        </mxCell>
        <mxCell id="2wVobbHNdjv6l93kUB2a-1" value="Start" style="ellipse;whiteSpace=wrap;html=1;" vertex="1" parent="1">
          <mxGeometry x="75" y="10" width="70" height="50" as="geometry" />
        </mxCell>
        <mxCell id="2wVobbHNdjv6l93kUB2a-2" value="Initialiser en teller til 0." style="rounded=1;whiteSpace=wrap;html=1;" vertex="1" parent="1">
          <mxGeometry x="60" y="70" width="107.5" height="30" as="geometry" />
        </mxCell>
        <mxCell id="2wVobbHNdjv6l93kUB2a-3" value="Gå gjennom hvert tegn i strengen." style="rounded=1;whiteSpace=wrap;html=1;" vertex="1" parent="1">
          <mxGeometry x="60" y="110" width="110" height="30" as="geometry" />
        </mxCell>
        <mxCell id="2wVobbHNdjv6l93kUB2a-4" value="Øk telleren med" style="rounded=1;whiteSpace=wrap;html=1;" vertex="1" parent="1">
          <mxGeometry x="60" y="150" width="110" height="20" as="geometry" />
        </mxCell>
        <mxCell id="2wVobbHNdjv6l93kUB2a-25" value="" style="edgeStyle=orthogonalEdgeStyle;rounded=0;orthogonalLoop=1;jettySize=auto;html=1;" edge="1" parent="1" target="2wVobbHNdjv6l93kUB2a-8">
          <mxGeometry relative="1" as="geometry">
            <mxPoint x="85.00754385964909" y="210" as="sourcePoint" />
            <mxPoint x="105.00754385964909" y="260.01115009746576" as="targetPoint" />
            <Array as="points">
              <mxPoint x="85" y="235" />
              <mxPoint x="110" y="235" />
            </Array>
          </mxGeometry>
        </mxCell>
        <mxCell id="2wVobbHNdjv6l93kUB2a-26" value="" style="edgeStyle=orthogonalEdgeStyle;rounded=0;orthogonalLoop=1;jettySize=auto;html=1;" edge="1" parent="1">
          <mxGeometry relative="1" as="geometry">
            <mxPoint x="149.97999999999993" y="180" as="sourcePoint" />
            <mxPoint x="144.99754385964908" y="230.01115009746576" as="targetPoint" />
            <Array as="points">
              <mxPoint x="149.98" y="200" />
              <mxPoint x="144.98" y="200" />
            </Array>
          </mxGeometry>
        </mxCell>
        <mxCell id="2wVobbHNdjv6l93kUB2a-5" value="Har du nådd slutten av strengen?&amp;nbsp;&amp;nbsp;" style="rounded=1;whiteSpace=wrap;html=1;" vertex="1" parent="1">
          <mxGeometry x="60" y="180" width="110" height="30" as="geometry" />
        </mxCell>
        <mxCell id="2wVobbHNdjv6l93kUB2a-6" value="returner telleren" style="rounded=1;whiteSpace=wrap;html=1;" vertex="1" parent="1">
          <mxGeometry x="10" y="220" width="92.5" height="20" as="geometry" />
        </mxCell>
        <mxCell id="2wVobbHNdjv6l93kUB2a-8" value="slutt" style="rhombus;whiteSpace=wrap;html=1;" vertex="1" parent="1">
          <mxGeometry x="81.88" y="260" width="56.25" height="50" as="geometry" />
        </mxCell>
        <mxCell id="2wVobbHNdjv6l93kUB2a-9" value="fortsett til neste tegn" style="rounded=1;whiteSpace=wrap;html=1;" vertex="1" parent="1">
          <mxGeometry x="115" y="220" width="115" height="20" as="geometry" />
        </mxCell>
        <mxCell id="2wVobbHNdjv6l93kUB2a-20" value="" style="shape=singleArrow;direction=south;whiteSpace=wrap;html=1;fillColor=#0A0A0A;" vertex="1" parent="1">
          <mxGeometry x="105.00999999999999" y="60" width="10" height="10" as="geometry" />
        </mxCell>
        <mxCell id="2wVobbHNdjv6l93kUB2a-21" value="" style="shape=singleArrow;direction=south;whiteSpace=wrap;html=1;fillColor=#0A0A0A;" vertex="1" parent="1">
          <mxGeometry x="105.01" y="100" width="10" height="10" as="geometry" />
        </mxCell>
        <mxCell id="2wVobbHNdjv6l93kUB2a-22" value="" style="shape=singleArrow;direction=south;whiteSpace=wrap;html=1;fillColor=#0A0A0A;" vertex="1" parent="1">
          <mxGeometry x="105.01" y="140" width="10" height="10" as="geometry" />
        </mxCell>
        <mxCell id="2wVobbHNdjv6l93kUB2a-23" value="" style="shape=singleArrow;direction=south;whiteSpace=wrap;html=1;fillColor=#0A0A0A;" vertex="1" parent="1">
          <mxGeometry x="105.01" y="170" width="10" height="10" as="geometry" />
        </mxCell>
        <mxCell id="2wVobbHNdjv6l93kUB2a-28" value="Start" style="ellipse;whiteSpace=wrap;html=1;" vertex="1" parent="1">
          <mxGeometry x="315" y="10" width="70" height="50" as="geometry" />
        </mxCell>
        <mxCell id="2wVobbHNdjv6l93kUB2a-29" value="Sett første element som max" style="rounded=1;whiteSpace=wrap;html=1;" vertex="1" parent="1">
          <mxGeometry x="300" y="70" width="107.5" height="30" as="geometry" />
        </mxCell>
        <mxCell id="2wVobbHNdjv6l93kUB2a-30" value="Gå til neste element" style="rounded=1;whiteSpace=wrap;html=1;" vertex="1" parent="1">
          <mxGeometry x="300" y="110" width="110" height="30" as="geometry" />
        </mxCell>
        <mxCell id="2wVobbHNdjv6l93kUB2a-31" value="Er elementet større enn max? " style="rounded=1;whiteSpace=wrap;html=1;" vertex="1" parent="1">
          <mxGeometry x="300" y="150" width="110" height="30" as="geometry" />
        </mxCell>
        <mxCell id="2wVobbHNdjv6l93kUB2a-71" value="" style="edgeStyle=orthogonalEdgeStyle;rounded=0;orthogonalLoop=1;jettySize=auto;html=1;" edge="1" parent="1" source="2wVobbHNdjv6l93kUB2a-35" target="2wVobbHNdjv6l93kUB2a-36">
          <mxGeometry relative="1" as="geometry" />
        </mxCell>
        <mxCell id="2wVobbHNdjv6l93kUB2a-35" value="oppdater max" style="rounded=1;whiteSpace=wrap;html=1;" vertex="1" parent="1">
          <mxGeometry x="252.51" y="190" width="92.5" height="30" as="geometry" />
        </mxCell>
        <mxCell id="2wVobbHNdjv6l93kUB2a-36" value="slutt" style="rhombus;whiteSpace=wrap;html=1;" vertex="1" parent="1">
          <mxGeometry x="321.88" y="280" width="56.25" height="50" as="geometry" />
        </mxCell>
        <mxCell id="2wVobbHNdjv6l93kUB2a-37" value="fortsett med neste element" style="rounded=1;whiteSpace=wrap;html=1;" vertex="1" parent="1">
          <mxGeometry x="355.01" y="190" width="115" height="30" as="geometry" />
        </mxCell>
        <mxCell id="2wVobbHNdjv6l93kUB2a-38" value="" style="shape=singleArrow;direction=south;whiteSpace=wrap;html=1;fillColor=#0A0A0A;" vertex="1" parent="1">
          <mxGeometry x="345.01" y="60" width="10" height="10" as="geometry" />
        </mxCell>
        <mxCell id="2wVobbHNdjv6l93kUB2a-39" value="" style="shape=singleArrow;direction=south;whiteSpace=wrap;html=1;fillColor=#0A0A0A;" vertex="1" parent="1">
          <mxGeometry x="345.01" y="100" width="10" height="10" as="geometry" />
        </mxCell>
        <mxCell id="2wVobbHNdjv6l93kUB2a-40" value="" style="shape=singleArrow;direction=south;whiteSpace=wrap;html=1;fillColor=#0A0A0A;" vertex="1" parent="1">
          <mxGeometry x="345.01" y="140" width="10" height="10" as="geometry" />
        </mxCell>
        <mxCell id="2wVobbHNdjv6l93kUB2a-42" value="Start" style="ellipse;whiteSpace=wrap;html=1;" vertex="1" parent="1">
          <mxGeometry x="575" y="10" width="70" height="50" as="geometry" />
        </mxCell>
        <mxCell id="2wVobbHNdjv6l93kUB2a-43" value="Gå gjennom gruppelisten   " style="rounded=1;whiteSpace=wrap;html=1;" vertex="1" parent="1">
          <mxGeometry x="557.5" y="70" width="105" height="30" as="geometry" />
        </mxCell>
        <mxCell id="2wVobbHNdjv6l93kUB2a-77" value="" style="edgeStyle=orthogonalEdgeStyle;rounded=0;orthogonalLoop=1;jettySize=auto;html=1;entryX=0.125;entryY=0.333;entryDx=0;entryDy=0;entryPerimeter=0;" edge="1" parent="1" target="2wVobbHNdjv6l93kUB2a-51">
          <mxGeometry relative="1" as="geometry">
            <mxPoint x="589.5" y="110" as="sourcePoint" />
            <mxPoint x="574.996393442623" y="250" as="targetPoint" />
            <Array as="points">
              <mxPoint x="589" y="120" />
              <mxPoint x="575" y="120" />
              <mxPoint x="575" y="260" />
            </Array>
          </mxGeometry>
        </mxCell>
        <mxCell id="2wVobbHNdjv6l93kUB2a-44" value="Finnes det flere grupper?  " style="rounded=1;whiteSpace=wrap;html=1;" vertex="1" parent="1">
          <mxGeometry x="555" y="110" width="110" height="30" as="geometry" />
        </mxCell>
        <mxCell id="2wVobbHNdjv6l93kUB2a-45" value="Gå gjennom&amp;nbsp;studentene" style="rounded=1;whiteSpace=wrap;html=1;" vertex="1" parent="1">
          <mxGeometry x="500" y="150" width="110" height="30" as="geometry" />
        </mxCell>
        <mxCell id="2wVobbHNdjv6l93kUB2a-48" value="Returner &quot;Group not found&quot;         " style="rounded=1;whiteSpace=wrap;html=1;" vertex="1" parent="1">
          <mxGeometry x="618.13" y="150" width="111.87" height="30" as="geometry" />
        </mxCell>
        <mxCell id="2wVobbHNdjv6l93kUB2a-49" value="Sjekk om studentens navnstemmer overens? " style="rounded=1;whiteSpace=wrap;html=1;" vertex="1" parent="1">
          <mxGeometry x="492.51" y="195" width="117.49" height="45" as="geometry" />
        </mxCell>
        <mxCell id="2wVobbHNdjv6l93kUB2a-50" value="slutt" style="rhombus;whiteSpace=wrap;html=1;" vertex="1" parent="1">
          <mxGeometry x="540" y="310" width="50" height="40" as="geometry" />
        </mxCell>
        <mxCell id="2wVobbHNdjv6l93kUB2a-51" value="Fortsett med neste student" style="rounded=1;whiteSpace=wrap;html=1;" vertex="1" parent="1">
          <mxGeometry x="570" y="250" width="80" height="30" as="geometry" />
        </mxCell>
        <mxCell id="2wVobbHNdjv6l93kUB2a-52" value="" style="shape=singleArrow;direction=south;whiteSpace=wrap;html=1;fillColor=#0A0A0A;" vertex="1" parent="1">
          <mxGeometry x="605" y="60" width="10" height="10" as="geometry" />
        </mxCell>
        <mxCell id="2wVobbHNdjv6l93kUB2a-53" value="" style="shape=singleArrow;direction=south;whiteSpace=wrap;html=1;fillColor=#0A0A0A;" vertex="1" parent="1">
          <mxGeometry x="605" y="100" width="10" height="10" as="geometry" />
        </mxCell>
        <mxCell id="2wVobbHNdjv6l93kUB2a-56" value="returner max" style="rounded=1;whiteSpace=wrap;html=1;" vertex="1" parent="1">
          <mxGeometry x="270" y="230" width="92.5" height="30" as="geometry" />
        </mxCell>
        <mxCell id="2wVobbHNdjv6l93kUB2a-69" value="" style="endArrow=none;html=1;rounded=0;entryX=0.818;entryY=1.001;entryDx=0;entryDy=0;entryPerimeter=0;" edge="1" parent="1" target="2wVobbHNdjv6l93kUB2a-31">
          <mxGeometry width="50" height="50" relative="1" as="geometry">
            <mxPoint x="390" y="190" as="sourcePoint" />
            <mxPoint x="400" y="190" as="targetPoint" />
          </mxGeometry>
        </mxCell>
        <mxCell id="2wVobbHNdjv6l93kUB2a-70" value="" style="endArrow=none;html=1;rounded=0;" edge="1" parent="1">
          <mxGeometry width="50" height="50" relative="1" as="geometry">
            <mxPoint x="326" y="190" as="sourcePoint" />
            <mxPoint x="326" y="180" as="targetPoint" />
          </mxGeometry>
        </mxCell>
        <mxCell id="2wVobbHNdjv6l93kUB2a-80" value="" style="edgeStyle=orthogonalEdgeStyle;rounded=0;orthogonalLoop=1;jettySize=auto;html=1;exitX=0.521;exitY=1;exitDx=0;exitDy=0;exitPerimeter=0;" edge="1" parent="1">
          <mxGeometry relative="1" as="geometry">
            <mxPoint x="530.65073" y="267.5" as="sourcePoint" />
            <mxPoint x="565.635" y="310" as="targetPoint" />
            <Array as="points">
              <mxPoint x="531.18" y="297.5" />
              <mxPoint x="566.18" y="297.5" />
            </Array>
          </mxGeometry>
        </mxCell>
        <mxCell id="2wVobbHNdjv6l93kUB2a-73" value="Returner gruppenavn" style="rounded=1;whiteSpace=wrap;html=1;" vertex="1" parent="1">
          <mxGeometry x="492.51" y="250" width="73.13" height="30" as="geometry" />
        </mxCell>
        <mxCell id="2wVobbHNdjv6l93kUB2a-78" value="" style="endArrow=none;html=1;rounded=0;entryX=0.292;entryY=0.996;entryDx=0;entryDy=0;entryPerimeter=0;exitX=0.472;exitY=-0.01;exitDx=0;exitDy=0;exitPerimeter=0;" edge="1" parent="1" source="2wVobbHNdjv6l93kUB2a-73" target="2wVobbHNdjv6l93kUB2a-49">
          <mxGeometry width="50" height="50" relative="1" as="geometry">
            <mxPoint x="530" y="250" as="sourcePoint" />
            <mxPoint x="526.88" y="240" as="targetPoint" />
          </mxGeometry>
        </mxCell>
        <mxCell id="2wVobbHNdjv6l93kUB2a-79" value="" style="endArrow=none;html=1;rounded=0;entryX=0.292;entryY=0.996;entryDx=0;entryDy=0;entryPerimeter=0;exitX=0.614;exitY=-0.013;exitDx=0;exitDy=0;exitPerimeter=0;" edge="1" parent="1">
          <mxGeometry width="50" height="50" relative="1" as="geometry">
            <mxPoint x="650" y="150" as="sourcePoint" />
            <mxPoint x="650" y="140" as="targetPoint" />
          </mxGeometry>
        </mxCell>
        <mxCell id="2wVobbHNdjv6l93kUB2a-86" value="" style="line;strokeWidth=4;html=1;perimeter=backbonePerimeter;points=[];outlineConnect=0;" vertex="1" parent="1">
          <mxGeometry x="70" y="340" width="80" height="10" as="geometry" />
        </mxCell>
        <mxCell id="2wVobbHNdjv6l93kUB2a-87" value="" style="line;strokeWidth=4;html=1;perimeter=backbonePerimeter;points=[];outlineConnect=0;" vertex="1" parent="1">
          <mxGeometry x="330" y="360" width="60" height="10" as="geometry" />
        </mxCell>
        <mxCell id="2wVobbHNdjv6l93kUB2a-88" value="" style="line;strokeWidth=4;html=1;perimeter=backbonePerimeter;points=[];outlineConnect=0;" vertex="1" parent="1">
          <mxGeometry x="570" y="380" width="80" height="10" as="geometry" />
        </mxCell>
        <mxCell id="2wVobbHNdjv6l93kUB2a-89" value="find_group" style="text;html=1;align=center;verticalAlign=middle;resizable=0;points=[];autosize=1;strokeColor=none;fillColor=none;" vertex="1" parent="1">
          <mxGeometry x="570" y="360" width="80" height="30" as="geometry" />
        </mxCell>
        <mxCell id="2wVobbHNdjv6l93kUB2a-90" value="my-max" style="text;html=1;align=center;verticalAlign=middle;resizable=0;points=[];autosize=1;strokeColor=none;fillColor=none;" vertex="1" parent="1">
          <mxGeometry x="326.87" y="340" width="70" height="30" as="geometry" />
        </mxCell>
        <mxCell id="2wVobbHNdjv6l93kUB2a-91" value="my-str-len" style="text;html=1;align=center;verticalAlign=middle;resizable=0;points=[];autosize=1;strokeColor=none;fillColor=none;" vertex="1" parent="1">
          <mxGeometry x="70" y="320" width="80" height="30" as="geometry" />
        </mxCell>
      </root>
    </mxGraphModel>
  </diagram>
</mxfile>
